<mxfile host="app.diagrams.net" modified="2023-11-16T20:12:52.659Z" agent="Mozilla/5.0 (Windows NT 10.0; Win64; x64) AppleWebKit/537.36 (KHTML, like Gecko) Chrome/119.0.0.0 Safari/537.36" etag="l2-Zr96pcrPmT3FM_YmZ" version="22.1.2" type="device">
  <diagram id="C5RBs43oDa-KdzZeNtuy" name="Page-1">
    <mxGraphModel dx="1050" dy="557" grid="1" gridSize="10" guides="1" tooltips="1" connect="1" arrows="1" fold="1" page="1" pageScale="1" pageWidth="827" pageHeight="1169" math="0" shadow="0">
      <root>
        <mxCell id="WIyWlLk6GJQsqaUBKTNV-0" />
        <mxCell id="WIyWlLk6GJQsqaUBKTNV-1" parent="WIyWlLk6GJQsqaUBKTNV-0" />
        <mxCell id="yfaAFUnxNpCcrq8j4aMS-0" value="AutomobileAssemblyLine" style="swimlane;fontStyle=1;align=center;verticalAlign=top;childLayout=stackLayout;horizontal=1;startSize=26;horizontalStack=0;resizeParent=1;resizeParentMax=0;resizeLast=0;collapsible=1;marginBottom=0;whiteSpace=wrap;html=1;" vertex="1" parent="WIyWlLk6GJQsqaUBKTNV-1">
          <mxGeometry x="334" y="260" width="176" height="164" as="geometry" />
        </mxCell>
        <mxCell id="yfaAFUnxNpCcrq8j4aMS-2" value="" style="line;strokeWidth=1;fillColor=none;align=left;verticalAlign=middle;spacingTop=-1;spacingLeft=3;spacingRight=3;rotatable=0;labelPosition=right;points=[];portConstraint=eastwest;strokeColor=inherit;" vertex="1" parent="yfaAFUnxNpCcrq8j4aMS-0">
          <mxGeometry y="26" width="176" height="8" as="geometry" />
        </mxCell>
        <mxCell id="yfaAFUnxNpCcrq8j4aMS-3" value="ManufactureCar" style="text;strokeColor=none;fillColor=none;align=left;verticalAlign=top;spacingLeft=4;spacingRight=4;overflow=hidden;rotatable=0;points=[[0,0.5],[1,0.5]];portConstraint=eastwest;whiteSpace=wrap;html=1;" vertex="1" parent="yfaAFUnxNpCcrq8j4aMS-0">
          <mxGeometry y="34" width="176" height="26" as="geometry" />
        </mxCell>
        <mxCell id="yfaAFUnxNpCcrq8j4aMS-4" value="abstract&amp;nbsp;AssembleChassis ()" style="text;strokeColor=none;fillColor=none;align=left;verticalAlign=top;spacingLeft=4;spacingRight=4;overflow=hidden;rotatable=0;points=[[0,0.5],[1,0.5]];portConstraint=eastwest;whiteSpace=wrap;html=1;" vertex="1" parent="yfaAFUnxNpCcrq8j4aMS-0">
          <mxGeometry y="60" width="176" height="26" as="geometry" />
        </mxCell>
        <mxCell id="yfaAFUnxNpCcrq8j4aMS-5" value="abstract&amp;nbsp;InstallEngine ()" style="text;strokeColor=none;fillColor=none;align=left;verticalAlign=top;spacingLeft=4;spacingRight=4;overflow=hidden;rotatable=0;points=[[0,0.5],[1,0.5]];portConstraint=eastwest;whiteSpace=wrap;html=1;" vertex="1" parent="yfaAFUnxNpCcrq8j4aMS-0">
          <mxGeometry y="86" width="176" height="26" as="geometry" />
        </mxCell>
        <mxCell id="yfaAFUnxNpCcrq8j4aMS-6" value="abstract&amp;nbsp;PaintCar ()" style="text;strokeColor=none;fillColor=none;align=left;verticalAlign=top;spacingLeft=4;spacingRight=4;overflow=hidden;rotatable=0;points=[[0,0.5],[1,0.5]];portConstraint=eastwest;whiteSpace=wrap;html=1;" vertex="1" parent="yfaAFUnxNpCcrq8j4aMS-0">
          <mxGeometry y="112" width="176" height="26" as="geometry" />
        </mxCell>
        <mxCell id="yfaAFUnxNpCcrq8j4aMS-7" value="abstract&amp;nbsp;QualityCheck ()" style="text;strokeColor=none;fillColor=none;align=left;verticalAlign=top;spacingLeft=4;spacingRight=4;overflow=hidden;rotatable=0;points=[[0,0.5],[1,0.5]];portConstraint=eastwest;whiteSpace=wrap;html=1;" vertex="1" parent="yfaAFUnxNpCcrq8j4aMS-0">
          <mxGeometry y="138" width="176" height="26" as="geometry" />
        </mxCell>
        <mxCell id="yfaAFUnxNpCcrq8j4aMS-22" style="edgeStyle=orthogonalEdgeStyle;rounded=0;orthogonalLoop=1;jettySize=auto;html=1;endArrow=block;endFill=0;" edge="1" parent="WIyWlLk6GJQsqaUBKTNV-1" source="yfaAFUnxNpCcrq8j4aMS-8" target="yfaAFUnxNpCcrq8j4aMS-0">
          <mxGeometry relative="1" as="geometry" />
        </mxCell>
        <mxCell id="yfaAFUnxNpCcrq8j4aMS-8" value="SedanAssemblyLine" style="swimlane;fontStyle=1;align=center;verticalAlign=top;childLayout=stackLayout;horizontal=1;startSize=26;horizontalStack=0;resizeParent=1;resizeParentMax=0;resizeLast=0;collapsible=1;marginBottom=0;whiteSpace=wrap;html=1;" vertex="1" parent="WIyWlLk6GJQsqaUBKTNV-1">
          <mxGeometry x="201" y="510" width="176" height="138" as="geometry" />
        </mxCell>
        <mxCell id="yfaAFUnxNpCcrq8j4aMS-9" value="" style="line;strokeWidth=1;fillColor=none;align=left;verticalAlign=middle;spacingTop=-1;spacingLeft=3;spacingRight=3;rotatable=0;labelPosition=right;points=[];portConstraint=eastwest;strokeColor=inherit;" vertex="1" parent="yfaAFUnxNpCcrq8j4aMS-8">
          <mxGeometry y="26" width="176" height="8" as="geometry" />
        </mxCell>
        <mxCell id="yfaAFUnxNpCcrq8j4aMS-11" value="abstract&amp;nbsp;AssembleChassis ()" style="text;strokeColor=none;fillColor=none;align=left;verticalAlign=top;spacingLeft=4;spacingRight=4;overflow=hidden;rotatable=0;points=[[0,0.5],[1,0.5]];portConstraint=eastwest;whiteSpace=wrap;html=1;" vertex="1" parent="yfaAFUnxNpCcrq8j4aMS-8">
          <mxGeometry y="34" width="176" height="26" as="geometry" />
        </mxCell>
        <mxCell id="yfaAFUnxNpCcrq8j4aMS-12" value="abstract&amp;nbsp;InstallEngine ()" style="text;strokeColor=none;fillColor=none;align=left;verticalAlign=top;spacingLeft=4;spacingRight=4;overflow=hidden;rotatable=0;points=[[0,0.5],[1,0.5]];portConstraint=eastwest;whiteSpace=wrap;html=1;" vertex="1" parent="yfaAFUnxNpCcrq8j4aMS-8">
          <mxGeometry y="60" width="176" height="26" as="geometry" />
        </mxCell>
        <mxCell id="yfaAFUnxNpCcrq8j4aMS-13" value="abstract&amp;nbsp;PaintCar ()" style="text;strokeColor=none;fillColor=none;align=left;verticalAlign=top;spacingLeft=4;spacingRight=4;overflow=hidden;rotatable=0;points=[[0,0.5],[1,0.5]];portConstraint=eastwest;whiteSpace=wrap;html=1;" vertex="1" parent="yfaAFUnxNpCcrq8j4aMS-8">
          <mxGeometry y="86" width="176" height="26" as="geometry" />
        </mxCell>
        <mxCell id="yfaAFUnxNpCcrq8j4aMS-14" value="abstract&amp;nbsp;QualityCheck ()" style="text;strokeColor=none;fillColor=none;align=left;verticalAlign=top;spacingLeft=4;spacingRight=4;overflow=hidden;rotatable=0;points=[[0,0.5],[1,0.5]];portConstraint=eastwest;whiteSpace=wrap;html=1;" vertex="1" parent="yfaAFUnxNpCcrq8j4aMS-8">
          <mxGeometry y="112" width="176" height="26" as="geometry" />
        </mxCell>
        <mxCell id="yfaAFUnxNpCcrq8j4aMS-23" style="edgeStyle=orthogonalEdgeStyle;rounded=0;orthogonalLoop=1;jettySize=auto;html=1;endArrow=block;endFill=0;" edge="1" parent="WIyWlLk6GJQsqaUBKTNV-1" source="yfaAFUnxNpCcrq8j4aMS-15" target="yfaAFUnxNpCcrq8j4aMS-0">
          <mxGeometry relative="1" as="geometry" />
        </mxCell>
        <mxCell id="yfaAFUnxNpCcrq8j4aMS-15" value="SUVAssemblyLine" style="swimlane;fontStyle=1;align=center;verticalAlign=top;childLayout=stackLayout;horizontal=1;startSize=26;horizontalStack=0;resizeParent=1;resizeParentMax=0;resizeLast=0;collapsible=1;marginBottom=0;whiteSpace=wrap;html=1;" vertex="1" parent="WIyWlLk6GJQsqaUBKTNV-1">
          <mxGeometry x="451" y="510" width="176" height="138" as="geometry" />
        </mxCell>
        <mxCell id="yfaAFUnxNpCcrq8j4aMS-16" value="" style="line;strokeWidth=1;fillColor=none;align=left;verticalAlign=middle;spacingTop=-1;spacingLeft=3;spacingRight=3;rotatable=0;labelPosition=right;points=[];portConstraint=eastwest;strokeColor=inherit;" vertex="1" parent="yfaAFUnxNpCcrq8j4aMS-15">
          <mxGeometry y="26" width="176" height="8" as="geometry" />
        </mxCell>
        <mxCell id="yfaAFUnxNpCcrq8j4aMS-18" value="abstract&amp;nbsp;AssembleChassis ()" style="text;strokeColor=none;fillColor=none;align=left;verticalAlign=top;spacingLeft=4;spacingRight=4;overflow=hidden;rotatable=0;points=[[0,0.5],[1,0.5]];portConstraint=eastwest;whiteSpace=wrap;html=1;" vertex="1" parent="yfaAFUnxNpCcrq8j4aMS-15">
          <mxGeometry y="34" width="176" height="26" as="geometry" />
        </mxCell>
        <mxCell id="yfaAFUnxNpCcrq8j4aMS-19" value="abstract&amp;nbsp;InstallEngine ()" style="text;strokeColor=none;fillColor=none;align=left;verticalAlign=top;spacingLeft=4;spacingRight=4;overflow=hidden;rotatable=0;points=[[0,0.5],[1,0.5]];portConstraint=eastwest;whiteSpace=wrap;html=1;" vertex="1" parent="yfaAFUnxNpCcrq8j4aMS-15">
          <mxGeometry y="60" width="176" height="26" as="geometry" />
        </mxCell>
        <mxCell id="yfaAFUnxNpCcrq8j4aMS-20" value="abstract&amp;nbsp;PaintCar ()" style="text;strokeColor=none;fillColor=none;align=left;verticalAlign=top;spacingLeft=4;spacingRight=4;overflow=hidden;rotatable=0;points=[[0,0.5],[1,0.5]];portConstraint=eastwest;whiteSpace=wrap;html=1;" vertex="1" parent="yfaAFUnxNpCcrq8j4aMS-15">
          <mxGeometry y="86" width="176" height="26" as="geometry" />
        </mxCell>
        <mxCell id="yfaAFUnxNpCcrq8j4aMS-21" value="abstract&amp;nbsp;QualityCheck ()" style="text;strokeColor=none;fillColor=none;align=left;verticalAlign=top;spacingLeft=4;spacingRight=4;overflow=hidden;rotatable=0;points=[[0,0.5],[1,0.5]];portConstraint=eastwest;whiteSpace=wrap;html=1;" vertex="1" parent="yfaAFUnxNpCcrq8j4aMS-15">
          <mxGeometry y="112" width="176" height="26" as="geometry" />
        </mxCell>
      </root>
    </mxGraphModel>
  </diagram>
</mxfile>
